<?xml version="1.0" encoding="UTF-8" standalone="no"?>
<svg xmlns="http://www.w3.org/2000/svg" xml:space="preserve" height="100px" width="100px" version="1.1" y="0px" x="0px" xmlns:xlink="http://www.w3.org/1999/xlink" viewBox="0 0 100 100" enable-background="new 0 0 100 100">
<g id="document-icon">
	<path fill="#aaa" d="m86.914 35.385v0.013c0-0.813-0.074-1.683-0.227-2.651-0.037-0.243-0.088-0.481-0.189-0.936-0.109-0.526-0.23-1.049-0.379-1.569-0.111-0.374-0.232-0.743-0.361-1.1-0.141-0.406-0.293-0.804-0.48-1.265-0.152-0.368-0.307-0.742-0.602-1.35-0.189-0.389-0.387-0.759-0.586-1.131-1.781-3.317-3.932-5.849-4.857-6.871l-11.348-11.877c-1.465-1.385-3.047-2.495-4.679-3.462-0.464-0.271-0.911-0.594-1.385-0.832l-0.56-0.26c-0.482-0.217-0.959-0.438-1.412-0.606l-0.662-0.237c-0.434-0.147-0.853-0.28-1.229-0.379-0.203-0.058-0.404-0.115-0.592-0.155-0.4-0.097-0.776-0.177-1.132-0.236l-0.436-0.078c-0.391-0.056-0.764-0.093-1.146-0.121h-30.772c-5.997 0-10.876 4.877-10.876 10.875v77.688c0 5.996 4.879 10.873 10.876 10.873h52.241c5.998 0 10.875-4.877 10.875-10.873v-53.46h-0.082zm-21.076-26.677l11.266 11.798c0.812 0.896 2.709 3.118 4.391 6.193-1.291-0.635-2.74-0.992-4.273-0.992h-7.814c-3.744 0-6.785-3.045-6.785-6.787v-8.967c0-1.605-0.395-3.125-1.089-4.461 1.52 0.874 2.974 1.96 4.304 3.216zm18.252 80.137c0 4.394-3.576 7.969-7.969 7.969h-52.241c-4.396 0-7.971-3.575-7.971-7.969v-77.688c0-4.396 3.575-7.971 7.971-7.971h29.12v-0.022c0.078 0 0.151 0.021 0.226 0.022 3.637 0.123 6.563 3.1 6.563 6.767v8.966c0 5.344 4.345 9.69 9.69 9.69h7.741c3.738 0 6.783 3.04 6.789 6.775v0.013h0.08v53.448z"/>
</g>
</svg>
