<svg xmlns="http://www.w3.org/2000/svg" height="100" width="100"><path fill="#aaa" d="M86.914 35.385v.013c0-.813-.074-1.683-.227-2.651-.037-.243-.088-.481-.189-.936-.109-.526-.23-1.049-.379-1.569-.111-.374-.232-.743-.361-1.1-.141-.406-.293-.804-.48-1.265-.152-.368-.307-.742-.602-1.35-.189-.389-.387-.759-.586-1.131-1.781-3.317-3.932-5.849-4.857-6.871l-11.348-11.877c-1.465-1.385-3.047-2.495-4.679-3.462-.464-.271-.911-.594-1.385-.832l-.56-.26c-.482-.217-.959-.438-1.412-.606l-.662-.237c-.434-.147-.853-.28-1.229-.379-.203-.058-.404-.115-.592-.155-.4-.097-.776-.177-1.132-.236l-.436-.078c-.391-.056-.764-.093-1.146-.121h-30.772c-5.997 0-10.876 4.877-10.876 10.875v77.688c0 5.996 4.879 10.873 10.876 10.873h52.241c5.998 0 10.875-4.877 10.875-10.873v-53.46h-.082zm-21.076-26.677l11.266 11.798c.812.896 2.709 3.118 4.391 6.193-1.291-.635-2.74-.992-4.273-.992h-7.814c-3.744 0-6.785-3.045-6.785-6.787v-8.967c0-1.605-.395-3.125-1.089-4.461 1.52.874 2.974 1.96 4.304 3.216zm18.252 80.137c0 4.394-3.576 7.969-7.969 7.969h-52.241c-4.396 0-7.971-3.575-7.971-7.969v-77.688c0-4.396 3.575-7.971 7.971-7.971h29.12v-.022l.226.022c3.637.123 6.563 3.1 6.563 6.767v8.966c0 5.344 4.345 9.69 9.69 9.69h7.741c3.738 0 6.783 3.04 6.789 6.775v.013h.08v53.448z"/></svg>