<svg xmlns="http://www.w3.org/2000/svg" width="100" height="75.583"><path fill="#ccc" d="M72.592 72.536h-9.258c.057-.494.148-.977.148-1.486v-7.584h9.108c10.019 0 18.136-8.123 18.136-18.135 0-10.018-8.117-18.141-18.136-18.141-2.791 0-5.418.656-7.772 1.788l-3.674-3.669c-4.206-9.563-13.711-16.258-24.832-16.258-15.027 0-27.207 12.179-27.207 27.207 0 15.015 12.163 27.185 27.171 27.208v7.584c0 .512.096.994.15 1.486h-.116c-20.038 0-36.278-16.24-36.278-36.278 0-20.034 16.24-36.277 36.278-36.277 13.614 0 25.461 7.51 31.668 18.604 1.504-.258 3.029-.464 4.607-.464 15.027 0 27.207 12.182 27.207 27.209.005 15.023-12.174 27.206-27.2 27.206zm-38.742-23.225c-1.771-1.768-1.771-4.643 0-6.408l12.826-12.829c1.769-1.771 4.643-1.771 6.412 0l12.824 12.829c1.771 1.768 1.771 4.641 0 6.408-1.77 1.771-4.641 1.771-6.41 0l-5.087-5.084v26.822c0 2.502-2.031 4.533-4.531 4.533-2.506 0-4.537-2.031-4.537-4.533v-26.822l-5.083 5.084c-1.774 1.772-4.643 1.772-6.414 0z"/></svg>