<?xml version="1.0" encoding="utf-8"?>
<!-- Generator: Adobe Illustrator 16.0.0, SVG Export Plug-In . SVG Version: 6.00 Build 0)  -->
<!DOCTYPE svg PUBLIC "-//W3C//DTD SVG 1.1//EN" "http://www.w3.org/Graphics/SVG/1.1/DTD/svg11.dtd">
<svg version="1.1" id="Layer_1" xmlns="http://www.w3.org/2000/svg" xmlns:xlink="http://www.w3.org/1999/xlink" x="0px" y="0px"
	 width="100px" height="75.583px" viewBox="0 0 100 75.583" enable-background="new 0 0 100 75.583" xml:space="preserve">
<path fill="#CCCCCC" d="M72.592,72.536c-1.888,0-5.271,0-9.258,0c0.057-0.494,0.148-0.977,0.148-1.486v-7.584
	c3.81,0,7.094,0,9.108,0c10.019,0,18.136-8.123,18.136-18.135c0-10.018-8.117-18.141-18.136-18.141
	c-2.791,0-5.418,0.656-7.772,1.788l-3.674-3.669C56.938,15.746,47.433,9.051,36.312,9.051c-15.027,0-27.207,12.179-27.207,27.207
	c0,15.015,12.163,27.185,27.171,27.208v7.584c0,0.512,0.096,0.994,0.15,1.486c-0.037,0-0.081,0-0.116,0
	c-20.038,0-36.278-16.24-36.278-36.278c0-20.034,16.24-36.277,36.278-36.277c13.614,0,25.461,7.51,31.668,18.604
	c1.504-0.258,3.029-0.464,4.607-0.464c15.027,0,27.207,12.182,27.207,27.209C99.797,60.353,87.618,72.536,72.592,72.536z
	 M33.85,49.311c-1.771-1.768-1.771-4.643,0-6.408l12.826-12.829c1.769-1.771,4.643-1.771,6.412,0l12.824,12.829
	c1.771,1.768,1.771,4.641,0,6.408c-1.77,1.771-4.641,1.771-6.41,0l-5.087-5.084v26.822c0,2.502-2.031,4.533-4.531,4.533
	c-2.506,0-4.537-2.031-4.537-4.533V44.227l-5.083,5.084C38.49,51.083,35.621,51.083,33.85,49.311z"/>
</svg>
